<svg width="74" height="50" viewBox="0 0 74 50" fill="none" xmlns="http://www.w3.org/2000/svg">
  <path d="M16.3581 17.1812C15.908 17.7427 15.4279 18.195 14.9135 18.5422C13.9468 19.2045 12.8987 19.5346 11.767 19.5346C10.6354 19.5346 9.58939 19.2066 8.62274 18.5422C7.66037 17.8821 6.8909 17.0097 6.32077 15.9209C5.75063 14.8213 5.46342 13.6768 5.46342 12.4894C5.46342 11.2998 5.7442 10.1595 6.30576 9.05784C6.8759 7.97116 7.64536 7.09667 8.60773 6.43437C9.59368 5.77421 10.6482 5.44199 11.767 5.44199C12.8902 5.44199 13.9404 5.77421 14.9306 6.43437C15.3765 6.72801 15.8416 7.15882 16.3281 7.72896L20.1754 3.74659C19.436 2.9364 18.5936 2.2441 17.6527 1.6611C15.8609 0.55513 13.8975 0 11.767 0C9.64941 0 7.68823 0.55513 5.88567 1.66325C4.0681 2.79709 2.63419 4.30815 1.5818 6.20503C0.525123 8.10833 0 10.2067 0 12.4915C0 14.7678 0.525123 16.8575 1.5818 18.763C2.63419 20.6577 4.0681 22.1645 5.88567 23.2833C7.69037 24.3936 9.65155 24.9466 11.767 24.9466C13.8975 24.9466 15.8609 24.3914 17.6527 23.2833C18.5936 22.7025 19.4467 21.9952 20.2097 21.1657L16.3581 17.1812Z" fill="white"/>
  <path d="M42.822 6.22006C41.7031 4.31247 40.1728 2.8014 38.2331 1.68043C36.304 0.570165 34.2035 0.0171784 31.9273 0.0171784C29.6639 0.0171784 27.5634 0.572309 25.6237 1.68043C23.6732 2.81212 22.1364 4.32748 21.0176 6.22006C19.8859 8.14909 19.3179 10.2431 19.3179 12.5065C19.3179 14.7828 19.8859 16.8704 21.0176 18.778C22.1364 20.6856 23.6732 22.1967 25.6237 23.3176C27.5613 24.4279 29.6639 24.9809 31.9273 24.9809C34.2035 24.9809 36.304 24.4258 38.2331 23.3176C40.1707 22.2074 41.701 20.6942 42.822 18.778C43.958 16.8704 44.5217 14.7828 44.5217 12.5065C44.5217 10.2431 43.958 8.14909 42.822 6.22006ZM37.7615 15.9381C37.1335 17.0483 36.3105 17.9271 35.2902 18.5787C34.2571 19.2388 33.1383 19.571 31.9273 19.571C30.7056 19.571 29.5803 19.2388 28.5472 18.5787C27.527 17.9292 26.7104 17.0483 26.0931 15.9381C25.4779 14.8514 25.1693 13.7068 25.1693 12.5065C25.1693 11.3063 25.4715 10.1638 26.0781 9.07502C26.6846 7.97762 27.5055 7.10527 28.5494 6.45369C29.5825 5.79139 30.7077 5.45917 31.9294 5.45917C33.1276 5.45917 34.2571 5.79139 35.3095 6.45369C36.3426 7.11384 37.1592 7.98833 37.7637 9.07502C38.3681 10.1617 38.6724 11.3063 38.6724 12.5065C38.6703 13.6961 38.3681 14.8385 37.7615 15.9381Z" fill="white"/>
  <path d="M45.3643 0.58719V24.4128L51.2157 24.4278V0.58719H45.3643Z" fill="white"/>
  <path d="M67.2544 0.570056V11.5826L52.0559 0.233549V24.3785H54.8272L57.9394 23.3711L57.9244 12.2557L67.7946 20.1797L73.1058 18.4607V0.602207L67.2544 0.570056Z" fill="white"/>
  <path d="M72.4327 31.9574L61.3001 34.9646L10.3889 49.1172C8.02475 49.7752 5.53846 48.7507 4.83758 46.8324C4.02739 44.6097 4.5568 42.2756 6.04429 40.4237C6.35508 40.0358 6.79661 39.7721 7.28744 39.6821L71.5518 27.9215C74.1217 27.4521 75.024 31.2223 72.5099 31.936C72.482 31.9446 72.4584 31.951 72.4327 31.9574Z" fill="white"/>
</svg>
